<svg xmlns:xlink="http://www.w3.org/1999/xlink" xmlns="http://www.w3.org/2000/svg" fill="none" viewBox="0 0 128 36" width="128"  height="36" ><g clip-path="url(#a)"><path fill="url(#b)" d="M39.146 23.111c-.378 0-.532.393-.462 1.182.067.789.007 1.276-.18 1.463-.79.779-1.578 1.17-2.368 1.17-.43 0-.889-.089-1.378-.266-.488-.178-.948-.25-1.377-.216-.378 0-.835.06-1.377.177a7.296 7.296 0 0 1-1.583.178c-.139 0-.357-.022-.656-.063-.3-.043-.45-.182-.45-.42 0-.795.017-1.373.05-1.728 0-.187-.048-.48-.141-.877a4.643 4.643 0 0 1-.142-1.082c0-.237.087-.503.26-.8.17-.298.325-.537.461-.724.137 0 .288-.012.45-.039a3.89 3.89 0 0 1 .607-.038c.926-.084 1.63-.127 2.11-.127.359-.1.684-.154.977-.154 1.03 0 1.544.374 1.544 1.12 0 .424-.115.635-.347.635a.723.723 0 0 0-.58.28c-.086.221.087.332.515.332.43 0 .738-.365.978-1.094.086-.287.2-.58.347-.877.146-.297.218-.657.218-1.081 0-.271-.178-.559-.527-.866a14 14 0 0 0-.81-.661c-.651-.509-1.449-.763-2.392-.763-.379 0-.872.16-1.48.485-.608.32-.956.484-1.042.484-.565 0-.85-.508-.85-1.525 0-.595.163-1.33.488-2.213.137-.558.276-.882.412-.966.05 0 .192-.06.424-.177.233-.118.424-.178.58-.178.136 0 .275.022.412.063.136.043.299.064.488.064.652 0 1.341.027 2.072.077a6.553 6.553 0 0 0 2.148-.204c.24-.187.446-.534.618-1.043.05-.136.11-.33.18-.585.07-.254.155-.474.258-.661.05-.137.24-.535.566-1.197 0-.033.055-.237.167-.611.11-.374.168-.585.168-.635 0-.137-.113-.204-.336-.204-.378 0-.742.22-1.094.662-.352.44-.596.779-.733 1.016-.24.271-.666.453-1.274.547a10.73 10.73 0 0 1-1.61.139c-.703.084-1.218.177-1.544.28-.292.084-.79.178-1.492.28-.412.137-.9.264-1.468.382-.565.12-1.08.177-1.545.177h-.85c-.379 0-.668-.06-.874-.177a1.486 1.486 0 0 0-.747-.178c-.19 0-.434.068-.733.204-.3.137-.45.228-.45.28-.05.272.076.399.385.382.309-.017.601.017.874.1.565.137.874.415.927.84.034.407.103.89.206 1.45.086.508.13 1.348.13 2.518 0 .357-.037.755-.104 1.196-.07.441-.103.822-.103 1.143a5.484 5.484 0 0 1-.282 1.12c-.137.374-.206.695-.206.966 0 .288.093.755.282 1.4.137.408.206.796.206 1.17 0 1.17-.136 2.12-.412 2.848-.153.288-.558.442-1.21.458-.65.017-.976.211-.976.585 0 .187.136.28.412.28.189 0 .39-.011.606-.038.215-.026.416-.038.606-.038.136.05.38.122.732.216.352.093.597.165.733.216 1.03.27 2.11.407 3.243.407h3.937c.412 0 .82.034 1.222.1.402.068.81.102 1.224.102.565 0 1.003-.255 1.312-.763a5.526 5.526 0 0 1 1.003-1.246c.379-.408.673-.823.889-1.247.215-.424.32-1.05.32-1.882 0-.137-.047-.424-.14-.866-.094-.44-.238-.661-.424-.661l.002-.003Z"/><path fill="url(#c)" d="M46.681 29.726c.532 0 1.044-.144 1.543-.039.498.106.989.06 1.47.06.965 0 1.583-.13 1.856-.386.082-.096.242-.242.482-.434.242-.194.361-.352.361-.482 0-.273-.167-.41-.505-.41-.225 0-.546.101-.965.302-.42.202-.74.303-.965.303-.355 0-.659.033-.918-.096-.177-.048-.306-.25-.385-.605-.13-.256-.295-.266-.494-.419a.76.76 0 0 1-.301-.64 3.58 3.58 0 0 1-.144-.918c0-.482-.017-.79-.048-.919-.048-.177-.072-.486-.072-.93v-.978c0-.45.012-.93.036-1.436a32.093 32.093 0 0 0 0-2.992 10.42 10.42 0 0 1 .036-1.508c.031-.273.048-.755.048-1.448 0-.225.012-.446.036-.664.024-.218.06-.463.108-.736 0-.13.019-.456.06-.978.04-.523.131-.832.277-.93.177-.082.434-.12.771-.12.482 0 .978.208 1.483.628.505.42.896.757 1.169 1.014.081.081.208.297.385.652.177.225.266.491.266.796 0 .256.012.594.036 1.014.024.42.165.628.421.628.178 0 .285-.242.326-.724.041-.482.084-.853.132-1.11 0-.434-.024-.765-.072-.99-.081-.434-.144-.74-.194-.918-.177-.789-.28-1.432-.314-1.933a39.926 39.926 0 0 1-.143-1.014c-.048-.369-.202-.556-.458-.556-.225 0-.445.065-.663.194-.218.13-.608.242-1.169.338-.354.13-.728.182-1.12.156a18.614 18.614 0 0 0-1.121-.036 4.039 4.039 0 0 1-1.062.144c-.129 0-.457.065-.989.194-.225.048-.62.072-1.18.072-.178 0-.343.02-.494.06-.153.04-.342.06-.567.06-1.095 0-1.88-.089-2.364-.266a1.787 1.787 0 0 1-.735-.302c-.218-.154-.39-.245-.52-.278-.256 0-.378.206-.362.616.017.41.024.753.024 1.026 0 .307-.033.611-.096.918a4.201 4.201 0 0 0-.095.87c-.13.66-.307 1.158-.532 1.496-.177.322-.395.741-.651 1.257.047.354.225.532.531.532.082 0 .177-.089.29-.266a2.33 2.33 0 0 1 .29-.386c.048-.048.225-.29.532-.724.129-.226.273-.47.433-.736.16-.266.345-.528.556-.784.354-.482.819-.837 1.398-1.062.209-.082.54-.12.99-.12.208 0 .433-.012.675-.036a1.16 1.16 0 0 1 .7.156v1.292c0 .506.023.89.07 1.146.032.177.049.57.049 1.184 0 .226.012.439.036.64.024.202.036.391.036.569 0 .386.012.788.036 1.205.024.42.012.806-.036 1.159a4.747 4.747 0 0 0-.096 1.158c.017.369.024.757.024 1.157a8.025 8.025 0 0 0-.156 1.17c-.024.396-.036.794-.036 1.197-.048.256-.093.62-.132 1.086-.04.467-.107.83-.206 1.086-.08.307-.153.657-.217 1.05-.065.395-.233.616-.506.664a4.4 4.4 0 0 1-1.037.23c-.306.024-.505.23-.603.616.048.096.354.144.917.144 1.013-.048 1.672-.04 1.978.024.304.065.771.096 1.399.096a.618.618 0 0 0 .194-.024.943.943 0 0 1 .266-.024l-.003-.002Z"/><path fill="url(#d)" d="M82.129 33.54c-.446.156-.783.235-1.013.235-.494 0-1.135-.27-1.926-.815-.79-.544-1.317-.947-1.58-1.21-.412-.413-.728-1.01-.951-1.794-.223-.784-.4-1.513-.532-2.189-.132-.626-.333-1.582-.606-2.867-.27-1.285-.539-2.472-.802-3.56-.28-.758-.51-1.463-.692-2.115a20.401 20.401 0 0 1-.47-2.189 77.224 77.224 0 0 0-.704-3.486l-.58-2.596a36.755 36.755 0 0 1-1-3.783c-.271-1.302-.54-2.604-.803-3.906 0-.182.125-.42.371-.717.247-.297.544-.446.889-.446h1.087a.451.451 0 0 0 .333-.136c.091-.091.07-.178-.062-.26-.263-.097-.778-.181-1.545-.246a22.5 22.5 0 0 0-1.69-.098c-.676 0-1.282-.034-1.816-.099a12.512 12.512 0 0 0-1.494-.098c-1.17 0-2.247-.194-3.236-.58-.987-.386-1.952-.58-2.89-.58-.362 0-.504.09-.42.27.28.413.666.574 1.162.482.493-.09.898.087 1.21.533.08.182.246.565.492 1.148.247.585.372 1.019.372 1.3 0 .987-.326 2.764-.975 5.327-.651 2.562-1.106 4.315-1.37 5.255-.132.463-.366 1.33-.704 2.608-.338 1.278-.687 1.966-1.049 2.064-.412.132-1.27.389-2.57.768-1.3.378-2.158.568-2.57.568-.411 0-.593-.312-.593-.94 0-.082.04-.355.124-.815 0-.082-.04-.125-.125-.125-.411.578-.617 1.048-.617 1.41 0 .544.213.985.642 1.323.428.338.847.55 1.26.63.706.183 1.254.229 1.642.137.386-.09.934-.15 1.643-.184-.395.89-.864 2.035-1.408 3.438a47.923 47.923 0 0 1-1.828 4.128c-.675 1.352-1.46 2.498-2.358 3.436-.899.94-1.907 1.41-3.025 1.41-.28 0-.712-.022-1.298-.063-.585-.04-.877-.333-.877-.877 0-.94.544-1.41 1.631-1.41.264 0 .486.045.666.136.182.092.412.137.692.137-.098-.148-.27-.39-.52-.729-.246-.338-.503-.506-.766-.506-.625 0-1.21.214-1.753.643-.544.43-.815.964-.815 1.606 0 .94.54 1.657 1.62 2.15 1.077.495 2.085.742 3.024.742h1.088c.675 0 1.441-.338 2.296-1.015.855-.676 1.483-1.22 1.878-1.632.362-.345.836-1.005 1.42-1.978a43.07 43.07 0 0 0 1.296-2.275c.675-1.352 1.18-2.568 1.518-3.647.338-1.079.843-2.294 1.519-3.646.213-.346.543-.595.989-.743.824-.132 1.334-.197 1.53-.197h1.58c.544 0 1.186.125 1.926.372s1.267.51 1.58.79c.676.677 1.026 1.113 1.05 1.312.024.197.168.774.431 1.731.132.626.254 1.278.371 1.954.115.676.24 1.302.371 1.88.132.544.288 1.153.47 1.829.182.676.27 1.352.27 2.028 0 .264-.181.42-.543.47-.446.132-.98.288-1.605.47s-.989.477-1.087.89c0 .213.201.222.606.023.402-.196.654-.32.754-.371a2.2 2.2 0 0 0 .395-.036c.132-.024.288-.063.47-.11 1.135-.166 1.88-.286 2.234-.36.355-.075 1.231-.063 2.63.036 1.169.132 2.268.31 3.298.532a14.94 14.94 0 0 0 3.173.333c.263.099.44-.053.532-.458.09-.402.093-.654.012-.752a2.408 2.408 0 0 0-1.284.11l.005-.005ZM68 19.323c-.297-.139-1.135-.367-2.52-.68a5.814 5.814 0 0 0-1.728.011c-.609.091-.848-.093-.717-.556.05-.264.14-.654.271-1.175.132-.52.27-.935.42-1.249a1.72 1.72 0 0 1 .222-.47 3.15 3.15 0 0 0 .297-.618c.098-.213.24-.75.419-1.606.182-.856.378-1.559.591-2.103.149-.396.379-1.261.693-2.596.311-1.336.6-2.043.864-2.127 0 .808.235 2.103.704 3.882.47 1.78.755 2.958.853 3.536.081 1.22.338 2.395.766 3.524.429 1.13.71 2.254.84 3.376-1.02-.626-1.678-1.01-1.975-1.151v.002Z"/><path fill="url(#e)" d="M98.583 28.347c-.098-.053-.234-.113-.34-.045-.067.043-.096.122-.086.232.031.336.132.537.307.619.096.045.16.199.182.429-.029.662-.417 1.088-1.19 1.311a7.789 7.789 0 0 1-2.364.314 7.566 7.566 0 0 1-2.347-.47 199.24 199.24 0 0 0-2.245-.793 27.164 27.164 0 0 1-2.318-.664c-.33-.108-.625-.22-.91-.329-.524-.199-.977-.374-1.384-.398l-.805-.132c-.19-.002-.366-.03-.536-.057-.314-.048-.587-.091-.817.048-.122.074-.244-.02-.417-.166-.105-.09-.196-.167-.309-.177-.064 0-.392-.13-.414-2.563-.01-1.182-.144-2.412-.273-3.598-.091-.84-.187-1.71-.235-2.544a4.75 4.75 0 0 0-.093-.633c-.05-.271-.106-.55-.091-.813v-.036c.036-.671.072-1.364-.05-2.023-.106-.559-.34-1.942-.266-2.685.038-.391.177-.7.323-1.029.058-.13.117-.261.172-.405.166-.422.367-.655.6-.69.263-.041.687-.06 1.257-.056.43.034.641-.014.704-.158.064-.149-.075-.302-.178-.395-.129-.147-.277-.214-.44-.197-.113.012-.261-.02-.438-.089l-.032-.007a1.728 1.728 0 0 1-.421-.074 7.372 7.372 0 0 1-.4-.17l-.026-.008c-.37-.062-.889-.048-1.552.044-.668.09-1.162.187-1.504.287a1.47 1.47 0 0 1-.467.036 2.742 2.742 0 0 0-.525.003 29.38 29.38 0 0 0-1.082.124 6.264 6.264 0 0 1-1.011.067 1.82 1.82 0 0 1-.707-.141 1.948 1.948 0 0 0-.668-.17.273.273 0 0 0-.218.016c-.084.048-.139.14-.172.283v.034c.031.336.278.583.733.736.421.141.79.216 1.09.225.653.053.905.147 1.003.216.096.07.242.257.397.765.372 1.283.458 2.08.408 3.713-.03.952.076 1.909.182 2.834a29.6 29.6 0 0 1 .174 1.971c.027.62.024 1.273.022 1.904-.002.93-.005 1.891.079 2.81.012.131.038.258.062.38.036.173.067.334.063.497-.01.678.062 1.285.21 1.807.132.456.115.948.099 1.468l-.005.136c-.027.446-.127.626-.204.698-.17.156-.24.264-.23.34-.016.159.048.245.106.29.155.123.467.097.977-.086.654-.235 1.06-.378 1.219-.431.448-.209.972-.125 1.528-.036.333.052.675.108 1.025.11.282.022.558.13.826.233.235.09.455.177.67.201.233.029.446.127.674.232.182.084.368.173.584.23.3.063.656.161 1.068.276.448.125.956.266 1.528.4 1.092.255 1.947.497 2.546.722.168.053.52.183 1.049.386a6.357 6.357 0 0 0 1.46.391c.082.015.173.022.274.022.395 0 .931-.118 1.626-.355a37.354 37.354 0 0 0 1.56-.554c.478-.252.864-.642 1.146-1.165l.01-.024c.014-.058.076-.185.282-.468.18-.249.319-.601.412-1.045v-.021a4.478 4.478 0 0 0-.148-1.158c-.108-.41-.35-.676-.721-.787l.002.005Z"/><path fill="url(#f)" d="M110.85 26.46c0-.215-.031-.46-.096-.724a2.974 2.974 0 0 1-.088-.673c0-.417-.098-.88-.292-1.388-.146-.302-.24-.54-.273-.71-.051-.235-.204-.35-.446-.324-.223.034-.361.116-.417.245-.059.141-.012.316.149.532.232.32.28.76.141 1.302-.131.386-.27.822-.409 1.297-.132.448-.383.786-.743 1.005-.378.232-.809.45-1.276.65-.46.196-.927.294-1.392.294-.517 0-.946.022-1.269.065-.297.04-.632-.031-1.004-.211-.433-.175-1.013-.504-1.724-.974-.702-.462-1.166-.894-1.387-1.287-.229-.376-.474-.942-.723-1.68-.249-.737-.404-1.379-.462-1.911-.074-.506-.127-1.252-.153-2.213-.029-.947.036-1.623.191-2.021.12-.377.4-1.055.836-2.016.431-.95.8-1.583 1.099-1.882.307-.305.609-.569.899-.782.287-.209.644-.39 1.068-.537.459-.165.862-.307 1.233-.43.364-.121.685-.17.936-.145.496.117.896.326 1.184.613.131.161.301.353.505.571.191.206.34.434.433.657.111.475.144.678.151.765-.055.086-.163.256-.328.508-.225.345-.338.434-.397.46a1.125 1.125 0 0 0-.336.322c-.06.086-.158.129-.313.129-.206.029-.4.055-.578.077-.155.019-.28 0-.38-.063l-.02-.01c-.241-.088-.376-.203-.395-.337-.064-.446-.021-.628.027-.703.146-.218.321-.424.519-.609.103-.096.216-.223.168-.347-.05-.127-.225-.127-.283-.127-.177 0-.409.122-.704.371-.373.314-.45.463-.472.552-.107.268-.122.582-.045.935.005.144.072.311.208.508.127.182.216.295.281.355.141.23.308.347.486.347h.002c.479.08.829.091 1.075.041.111-.031.329-.115.671-.259.354-.149.582-.295.692-.434.745-.765 1.154-1.323 1.248-1.702.062-.25-.014-.827-1.389-2.94a12.622 12.622 0 0 0-.697-.941c-.321-.4-.572-.648-.771-.765-.237-.12-.652-.055-1.26.194-.572.235-1.183.523-1.815.858-.63.336-1.224.648-1.777.94-.731.384-.92.427-.968.427-.091 0-.297.065-1.133.537-.63.357-1.073.74-1.317 1.139-.232.38-.47.73-.706 1.035-.254.329-.482 1.178-.693 2.592a31.743 31.743 0 0 0-.39 3.467c-.053 1.074.04 1.793.292 2.203.151.235.882 1.259 2.247 3.143 1.279 1.232 2.119 1.947 2.565 2.18a12.09 12.09 0 0 0 1.659.704c.671.237 1.107.352 1.327.352.199 0 .472.027.81.077.119.017.241.027.368.027.254 0 .527-.036.812-.108 1.092-.314 1.923-.712 2.469-1.18.518-.446.966-.7 1.322-.753.851-.079 1.287-.53 1.255-1.294l-.007.005Z"/><path fill="url(#g)" d="M127.753 26.46c-.187-.546-.34-.779-.52-.779-.179 0-.292.05-.366.151-.086.118-.096.288-.026.518.102.34.155.671.155.98 0 .31-.182.667-.539 1.025-.357.357-.701.539-1.022.539-.491 0-.827-.029-1.004-.084a16.12 16.12 0 0 1-1.018-.393l-.792-.264a9.714 9.714 0 0 0-.851-.22c-.421-.101-.718-.14-.91-.123-.105.01-.313-.028-.713-.268-.161-.091-.429-.187-.819-.29-.393-.106-.671-.156-.853-.156h-.4c-.462 0-.888.153-1.269.455-.343.274-.726.41-1.135.41a.519.519 0 0 1-.118-.01c0-.328.031-.618.086-.862.06-.269.091-.588.091-.947 0-.19-.069-.413-.206-.662-.119-.218-.179-.525-.179-.911v-2.431c.069-.065.426-.266 2.155-.846 1.468-.492 2.369-.741 2.678-.741.325 0 .553.072.678.213.105.12.143.302.112.542-.103.803.285 1.062.63 1.139h.024c.175.002.237-.103.235-.206a6.04 6.04 0 0 0-.261-1.384 15.768 15.768 0 0 0-.388-1.158l-.012-.021a3.074 3.074 0 0 1-.472-1.134c-.07-.34-.307-.744-1.028-.744h-.304c-.869 0-1.624.315-2.241.93-.542.543-1.188.833-1.921.866.12-.592.096-1.546-.07-2.913-.174-1.433-.172-2.728.01-3.857.026-.319.055-.448.069-.494.003-.002.065-.065.482-.065.196 0 .436.022.706.063.297.045.534.038.709-.017.175-.034.362-.08.556-.14.182-.054.397-.083.642-.083.958 0 1.882.021 2.747.065.898.045 1.583-.274 2.04-.945.259-.355.537-.76.829-1.208a3.608 3.608 0 0 1 1.015-1.043c.326-.192.477-.475.453-.851-.029-.166-.149-.362-.556-.362h-.024c-.177.043-.321.21-.436.51a.893.893 0 0 1-.507.516c-.34.196-.798.343-1.358.436-.529.084-1.095.142-1.681.168-.592.026-1.164.072-1.701.137-.496.055-1.042.141-1.621.258a8.367 8.367 0 0 1-1.638.175c-.762 0-1.361.027-1.782.082-1.475.237-1.83.216-1.916.194-.058-.158-.309-.228-.826-.228-.336 0-.513.056-.575.183-.043.086-.024.184.052.29.192.29.42.431.681.417.206-.017.385.307.493.566.137.448.213 1.114.228 1.978.016.865.023 1.572.023 2.102 0 .355.032.753.089 1.18.058.417.086.803.089 1.129l-.137.698c-.06.304-.074.532-.043.697 0 .345.038.808.113 1.376.074.569.11 1.014.11 1.328 0 1.715-.043 3.47-.13 5.213-.031.481-.083.872-.158 1.16-.069.276-.227.542-.467.791a1.22 1.22 0 0 1-.888.355c-.426 0-.704.007-.855.024-.311.033-.311.506-.311.678.033.218.11.358.234.425.113.06.252.052.415-.022.273-.125.467-.204.565-.232l.769-.132c.208-.065.416-.142.617-.228a3.94 3.94 0 0 1 .635-.201 27.026 27.026 0 0 0 1.442-.274c.371-.084.939-.124 1.686-.124.977 0 1.777.117 2.376.345.62.237 1.334.443 2.112.611.695.235 1.442.43 2.22.573.778.144 1.619.218 2.498.218.328 0 .635-.23.917-.685.269-.434.458-.777.575-1.046a2.69 2.69 0 0 1 .726-.918c.345-.283.519-.638.519-1.055 0-.153-.079-.455-.246-.95l.007-.002Z"/><path fill="url(#h)" d="m86.624 11.043.779-.015c.16.043.342.103.538.182.209.082.376.125.51.127.367.183.551.571.563 1.185.01.56.101 1.12.19 1.659.03.19.062.381.088.57.053.365.046.744.038 1.11-.007.394-.014.801.05 1.202.051.319.113.63.173.932.206 1.046.4 2.03.125 3.146-.197.793-.27 1.606-.343 2.395-.048.53-.098 1.076-.186 1.613l-.01.065c-.062.39-.089.554-.355.832-.131.137-.21.259-.28.364-.122.187-.194.3-.488.372-.393.098-.721.292-.975.578l-.014.021c-.053.1-.034.175-.008.216.096.156.388.149 1.167.13.139-.003.294-.008.46-.01l.493-.01c.431-.008.873-.021 1.327-.04l.443-.02c.287-.012.503-.052.711-.09.22-.041.429-.082.719-.087.66-.012 1.46.058 2.356.209.254.081.405.112.498.112a.227.227 0 0 0 .137-.036c.038-.029.06-.072.055-.139-.043-.218-.252-.371-.659-.474-.448-.03-.63-.099-.711-.159-.568-.34-.615-.568-.68-.856a2.464 2.464 0 0 0-.026-.112l-.008-.032-.021-.021c-.278-.269-.31-.43-.386-.818l-.012-.064a5.654 5.654 0 0 1-.13-1.1 6.02 6.02 0 0 0-.133-1.135c-.046-.223-.08-.45-.11-.671-.055-.379-.11-.77-.233-1.15-.112-.358-.11-.78-.108-1.188v-.35c-.007-.402.07-.836.144-1.256.036-.204.072-.405.098-.602.089-.67.178-1.342.261-2.013.03-.233.065-.47.099-.713.11-.762.222-1.548.198-2.289a4.331 4.331 0 0 0-.035-.403 5.391 5.391 0 0 1-.036-.415c.052-.383.124-.436.134-.44.093-.056.213-.168.368-.348.283-.192.66-.293 1.119-.302.16-.003.366.012.615.045.16.022.285-.007.372-.084.084-.077.127-.194.124-.35-.005-.278-.402-.335-.534-.355-.29-.04-.52-.074-.697-.105-.416-.038-1.078-.05-1.966-.034-.642.012-1.26.156-1.86.293-.645.149-1.306.3-1.991.287-.17-.002-.343-.01-.513-.014a16.73 16.73 0 0 0-.981-.017 5.572 5.572 0 0 0-.633.072c-.246.039-.527.108-.524.317.007.295.507.285.699.283h-.005Z"/><path fill="url(#i)" d="M90.832 7.526c.122.052.234.103.337.15l.091-.194c.039.017.05.056.05.068 0-.072.161-.42.202-.492.09-.158.213-.316.378-.494a7.64 7.64 0 0 1 .937-.839c.574-.434 1.384-1.115 1.803-2.028a1.972 1.972 0 0 0-.062-1.767c-.31-.575-.874-.966-1.552-1.072-.702-.11-1.33.024-1.81.384a2.13 2.13 0 0 0-.727 1.007 1.623 1.623 0 0 0-.608-.882 1.824 1.824 0 0 0-1.554-.288 1.872 1.872 0 0 0-1.233 1.206c-.216.647-.106 1.546.28 2.287.97 1.86 2.471 2.522 3.463 2.958l.005-.004Z"/><path fill="url(#j)" d="M21.784 20.033c-.56-.655-1.077-1.172-1.556-1.556-.88-.527-1.495-.98-1.844-1.364-.13-.144-.444-.386-.946-.731-.503-.343-.755-.602-.755-.78l.982-.98c.431-.446.879-.954 1.341-1.52.462-.566.91-1.105 1.341-1.616.352-.398.659-.806.922-1.22.264-.415.547-.878.85-1.388.175-.35.305-.703.384-1.053a1.7 1.7 0 0 1 .371-.635c.151-.151.228-.403.228-.755 0-.607-.329-1.412-.982-2.42a11.473 11.473 0 0 0-1.318-1.627c-.256-.254-.495-.494-.718-.72a2.397 2.397 0 0 0-.838-.527 25.34 25.34 0 0 1-1.847-.743c-.527-.24-1.159-.36-1.892-.36-.733 0-1.485-.012-2.253-.036a13.259 13.259 0 0 0-2.206.108 8.835 8.835 0 0 0-1.473.348c-.455.15-.898.276-1.33.371-.574.127-1.154.288-1.738.48a7.538 7.538 0 0 1-1.664.36c-.4.047-.992.103-1.773.167-.783.065-1.35-.014-1.702-.24-.257-.126-.43-.266-.515-.419C.764 1.026.584.95.313.95c-.208 0-.31.24-.31.72 0 .222.239.51.718.86.654.384 1.274.65 1.858.801.582.151 1.25.252 2 .3.223 0 .508-.055.85-.168.343-.113.58-.096.707.048 0 .302-.02.618-.06.944-.04.329-.036.619.012.873 0 .257.031.54.096.851.064.312.12.595.167.851 0 .35.02.624.06.813.041.192.06.487.06.887 0 .352-.055.623-.168.815-.112.192-.167.463-.167.813 0 1.004.043 1.987.132 2.944.088.959.131 1.915.131 2.872 0 .398-.007.731-.024.993-.016.263-.024.546-.024.85 0 .91-.055 1.813-.167 2.705a21.24 21.24 0 0 0-.168 2.656c0 .384-.02 2.113-.06 2.4-.04.288-.06.559-.06.813 0 1.052-.136 2.186-.407 3.4-.079.302-.12.61-.12.923v.92c-.047.257-.095.535-.143.837l-.029.184c-.302 1.45-.968 1.276-2.108 1.276-.285 0-.723-.022-1.32-.062-.593-.041-.89-.338-.89-.892 0-.957.553-1.434 1.657-1.434.268 0 .494.046.678.14.184.09.42.138.704.138a22.4 22.4 0 0 0-.527-.74c-.251-.344-.51-.516-.778-.516-.637 0-1.231.218-1.784.654C.275 31.855 0 32.4 0 33.051c0 .957.548 1.685 1.645 2.186 1.097.504 2.122.756 3.075.756l1.34-.008c1.23-.23 2.459-.544 3.69-.963a35.86 35.86 0 0 0 5.537-2.446c3.221-1.75 6.76-4.092 7.7-7.88.227-.918.328-1.92.189-2.863-.12-.817-1.01-1.105-1.394-1.807l.002.007ZM10.521 2.58c1.183-.432 2.208-.624 3.08-.576.872.048 1.897.264 3.08.647.783.128 1.293.53 1.532 1.209.24.678.472 1.32.695 1.927.175.576.187 1.297.036 2.168-.15.87-.429 1.496-.826 1.88-.783.798-1.339 1.469-1.667 2.01-.328.542-.946 1.142-1.856 1.796-.273.209-.573.456-.898.744-.328.287-.645.431-.946.431-.383 0-.74.043-1.066.132a4.177 4.177 0 0 1-1.09.132c-.225 0-.323-.446-.3-1.34.025-.895.06-1.453.109-1.676.175-1.038.263-1.947.263-2.728 0-.528-.034-.998-.096-1.413a9.234 9.234 0 0 1-.095-1.412c0-.48-.048-.932-.144-1.364-.127-.35-.192-.83-.192-1.436s.127-.98.383-1.124l-.002-.007Zm6.842 21.02c-.198.367-.316 2.017-.347 2.16a32.8 32.8 0 0 0-.814 1.592c-.24.504-.599.969-1.078 1.4-1.054 1.1-1.626 1.652-1.715 1.652-.088 0-.61.329-1.568.98-.352.162-.88.353-1.581.576-.208.096-.477.22-.802.372-.328.15-.58.228-.755.228.127-1.1.355-2.24.683-3.412.328-1.172.642-2.287.946-3.34.127-.48.203-2.263.227-2.567.024-.302.036-.782.036-1.436 0-.48.024-.933.072-1.364.048-.432.072-.91.072-1.437 0-.654.031-1.057.096-1.208.062-.15.663-.228 1.796-.228.527 0 1.214.185 2.062.552.845.367 1.47.942 1.87 1.723.08.224.36.614.839 1.173.127.175.203.45.227.827.024.374.036.69.036.945 0 .175-.1.445-.3.815l-.002-.003Z"/></g><defs><linearGradient id="b" x1="31.592" x2="31.592" y1="-6.07" y2="35.866" gradientUnits="userSpaceOnUse"><stop stop-color="#fff"/><stop offset="1" stop-color="#A5E5F0"/></linearGradient><linearGradient id="c" x1="45.755" x2="45.755" y1="-6.071" y2="35.865" gradientUnits="userSpaceOnUse"><stop stop-color="#fff"/><stop offset="1" stop-color="#A5E5F0"/></linearGradient><linearGradient id="d" x1="64.892" x2="64.892" y1="-6.07" y2="35.866" gradientUnits="userSpaceOnUse"><stop stop-color="#fff"/><stop offset="1" stop-color="#A5E5F0"/></linearGradient><linearGradient id="e" x1="87.126" x2="87.126" y1="-6.071" y2="35.865" gradientUnits="userSpaceOnUse"><stop stop-color="#fff"/><stop offset="1" stop-color="#A5E5F0"/></linearGradient><linearGradient id="f" x1="103.28" x2="103.28" y1="-6.07" y2="35.866" gradientUnits="userSpaceOnUse"><stop stop-color="#fff"/><stop offset="1" stop-color="#A5E5F0"/></linearGradient><linearGradient id="g" x1="118.846" x2="118.846" y1="-6.07" y2="35.866" gradientUnits="userSpaceOnUse"><stop stop-color="#fff"/><stop offset="1" stop-color="#A5E5F0"/></linearGradient><linearGradient id="h" x1="90.775" x2="90.775" y1="-6.07" y2="35.866" gradientUnits="userSpaceOnUse"><stop stop-color="#fff"/><stop offset="1" stop-color="#A5E5F0"/></linearGradient><linearGradient id="i" x1="90.894" x2="90.894" y1="-6.07" y2="35.866" gradientUnits="userSpaceOnUse"><stop stop-color="#fff"/><stop offset="1" stop-color="#A5E5F0"/></linearGradient><linearGradient id="j" x1="11.62" x2="11.62" y1="-6.07" y2="35.866" gradientUnits="userSpaceOnUse"><stop stop-color="#fff"/><stop offset="1" stop-color="#A5E5F0"/></linearGradient><clipPath id="a"><path fill="#fff" d="M0 0h128v36H0z"/></clipPath></defs></svg>