<svg width="32" height="32" viewBox="0 0 32 32" fill="none" xmlns="http://www.w3.org/2000/svg">
  <rect width="32" height="32" fill="#082637"/>
  <path d="M21.9214 17.1782C21.5993 16.8 21.3019 16.5008 21.0266 16.2791C20.5214 15.9743 20.1676 15.7125 19.9666 15.4909C19.8923 15.4078 19.712 15.2679 19.4229 15.0684C19.1338 14.8703 18.9893 14.7207 18.9893 14.6182C19.3196 14.2857 19.5082 14.0973 19.5537 14.0516C19.8014 13.7939 20.0589 13.5002 20.3246 13.1733C20.5902 12.8464 20.8477 12.5347 21.0954 12.2396C21.2978 12.0097 21.474 11.7742 21.6254 11.5345C21.7769 11.2949 21.9393 11.0275 22.1141 10.7324C22.2146 10.5302 22.289 10.3266 22.3344 10.1243C22.3894 9.96777 22.461 9.84586 22.5478 9.7572C22.6345 9.66993 22.6785 9.52448 22.6785 9.32084C22.6785 8.97036 22.4899 8.50491 22.1141 7.92309C21.8567 7.54491 21.6048 7.23184 21.357 6.98249C21.2097 6.83565 21.072 6.69712 20.944 6.5669C20.8146 6.43807 20.6549 6.33695 20.4622 6.26214C20.0575 6.1153 19.7051 5.97123 19.4009 5.8327C19.098 5.69417 18.7346 5.62491 18.3133 5.62491C17.8921 5.62491 17.4599 5.61798 17.018 5.60413C16.5775 5.59028 16.1548 5.61106 15.7501 5.66647C15.4473 5.71218 15.1651 5.78006 14.9035 5.86733C14.642 5.95461 14.3873 6.02664 14.1395 6.08205C13.8091 6.15547 13.476 6.24829 13.1401 6.35911C12.8042 6.46993 12.4862 6.5392 12.1834 6.5669C11.9535 6.59461 11.6135 6.62647 11.1647 6.66387C10.7145 6.70127 10.3883 6.65556 10.1859 6.52534C10.0386 6.45192 9.93953 6.37158 9.88997 6.28292C9.83904 6.19565 9.73579 6.15132 9.58024 6.15132C9.46047 6.15132 9.40128 6.28985 9.40128 6.5669C9.40128 6.69573 9.53894 6.86197 9.81426 7.06422C10.1901 7.28586 10.5466 7.43963 10.8825 7.5269C11.217 7.61417 11.6011 7.67236 12.0319 7.70006C12.16 7.70006 12.3238 7.6682 12.5206 7.60309C12.7175 7.53798 12.8538 7.54768 12.9267 7.6308C12.9267 7.80534 12.9157 7.9882 12.8923 8.1766C12.8689 8.36638 12.8717 8.534 12.8992 8.68084C12.8992 8.82907 12.9171 8.99253 12.9543 9.17262C12.9914 9.3527 13.0231 9.51617 13.0506 9.66439C13.0506 9.86664 13.0616 10.0246 13.085 10.134C13.1084 10.2448 13.1195 10.4152 13.1195 10.6466C13.1195 10.8502 13.0878 11.0067 13.0231 11.1176C12.9584 11.2284 12.9267 11.3849 12.9267 11.5872C12.9267 12.1676 12.9515 12.7356 13.0024 13.2883C13.0534 13.8424 13.0782 14.3951 13.0782 14.9479C13.0782 15.1778 13.074 15.3704 13.0644 15.5214C13.0548 15.6737 13.0506 15.8372 13.0506 16.0131C13.0506 16.5382 13.019 17.0604 12.9543 17.5757C12.8896 18.0924 12.8579 18.6036 12.8579 19.1106C12.8579 19.3323 12.8469 20.3311 12.8235 20.4973C12.8001 20.6635 12.7891 20.8201 12.7891 20.9669C12.7891 21.575 12.7106 22.2303 12.5551 22.9312C12.5096 23.1058 12.4862 23.2845 12.4862 23.4646V23.9965C12.4587 24.1447 12.4312 24.3054 12.4036 24.48C12.3981 24.516 12.3926 24.552 12.3871 24.5866C12.2137 25.4247 11.831 25.3236 11.1757 25.3236C11.0119 25.3236 10.76 25.3111 10.4172 25.2876C10.0758 25.264 9.90511 25.0923 9.90511 24.7723C9.90511 24.2195 10.2231 23.9439 10.8577 23.9439C11.0119 23.9439 11.1413 23.9702 11.2473 24.0242C11.3533 24.0769 11.4882 24.1046 11.652 24.1046C11.5942 24.0173 11.4937 23.8746 11.3492 23.6765C11.2046 23.4784 11.0559 23.3787 10.9018 23.3787C10.5356 23.3787 10.1942 23.5047 9.8762 23.7569C9.55821 24.009 9.3999 24.3234 9.3999 24.7002C9.3999 25.253 9.71514 25.6741 10.3456 25.9636C10.9761 26.2545 11.5653 26.4 12.1132 26.4L12.8827 26.3958C13.5903 26.2628 14.2964 26.0814 15.004 25.8389C16.1039 25.4621 17.1666 24.9828 18.1867 24.4259C20.0382 23.4147 22.0728 22.0613 22.6124 19.8725C22.7432 19.342 22.801 18.7629 22.7212 18.2185C22.6524 17.7461 22.1403 17.5799 21.92 17.174L21.9214 17.1782ZM15.4473 7.09331C16.1273 6.84396 16.7165 6.73314 17.2176 6.76084C17.7187 6.78855 18.3078 6.91322 18.9879 7.13487C19.438 7.20829 19.7312 7.44101 19.8689 7.83305C20.0066 8.22508 20.1401 8.59634 20.2681 8.94681C20.3686 9.27928 20.3755 9.69625 20.2888 10.1991C20.202 10.702 20.0423 11.0635 19.8138 11.2852C19.3637 11.7465 19.0443 12.1343 18.8557 12.4474C18.6671 12.7605 18.312 13.1068 17.7889 13.485C17.6319 13.6055 17.4599 13.7482 17.2726 13.9144C17.084 14.0807 16.9023 14.1638 16.7289 14.1638C16.5086 14.1638 16.3035 14.1887 16.1163 14.24C15.9277 14.2912 15.7185 14.3162 15.49 14.3162C15.3606 14.3162 15.3041 14.0585 15.3179 13.5418C15.3316 13.0251 15.3523 12.7023 15.3798 12.5735C15.4803 11.9737 15.5313 11.4486 15.5313 10.997C15.5313 10.6923 15.512 10.4208 15.4762 10.1811C15.439 9.94145 15.4211 9.66993 15.4211 9.36517C15.4211 9.08811 15.3936 8.8263 15.3385 8.57694C15.2656 8.37469 15.2284 8.09764 15.2284 7.74716C15.2284 7.39669 15.3014 7.18058 15.4487 7.09746L15.4473 7.09331ZM19.3802 19.2395C19.266 19.4514 19.1985 20.4045 19.1806 20.4876C19.0058 20.8104 18.8502 21.1165 18.7126 21.4074C18.5749 21.6983 18.3684 21.9671 18.0931 22.2164C17.4874 22.8523 17.1584 23.1709 17.1075 23.1709C17.0565 23.1709 16.7564 23.3607 16.2058 23.7375C16.0034 23.8303 15.7006 23.9411 15.2972 24.0699C15.1775 24.1253 15.0233 24.1974 14.8361 24.2847C14.6475 24.3719 14.5029 24.4163 14.4024 24.4163C14.4754 23.7804 14.6062 23.1224 14.7948 22.445C14.9834 21.7676 15.1637 21.1234 15.3385 20.5153C15.4115 20.2382 15.4555 19.2076 15.4693 19.0317C15.4831 18.8571 15.49 18.5801 15.49 18.2019C15.49 17.9248 15.5037 17.663 15.5313 17.4137C15.5588 17.1643 15.5725 16.8886 15.5725 16.5839C15.5725 16.2057 15.5904 15.973 15.6276 15.8857C15.6634 15.7984 16.0089 15.7541 16.6601 15.7541C16.9629 15.7541 17.358 15.8608 17.8453 16.0727C18.3312 16.2846 18.6905 16.6171 18.9204 17.0687C18.9659 17.1975 19.1269 17.4234 19.4022 17.7461C19.4752 17.8472 19.5192 18.0066 19.533 18.224C19.5468 18.4401 19.5537 18.623 19.5537 18.7698C19.5537 18.871 19.4958 19.0275 19.3816 19.2408L19.3802 19.2395Z" fill="url(#paint0_linear_70172_163130)"/>
  <defs>
    <linearGradient id="paint0_linear_70172_163130" x1="16.0791" y1="2.09521" x2="16.0791" y2="26.3266" gradientUnits="userSpaceOnUse">
      <stop stop-color="white"/>
      <stop offset="1" stop-color="#A5E5F0"/>
    </linearGradient>
  </defs>
</svg>
